<svg xmlns="http://www.w3.org/2000/svg" viewBox="0 0 256 256" width="256" height="256">
  <title>Leaf motif (alt)</title>
  <g fill="currentColor" fill-rule="evenodd"><path d="M 201.17 93.04L 131.25 110.93C 119.01 114.56 121.95 113.6 113.37 119.06C 104.79 124.52 100.94 128.62 95.48 133.69C 91.6 137.29 92.94 135.52 90.6 140.2L 85.72 153.2L 108.49 128.81C 118.64 120.23 114.18 122.38 128 117.43L 194.67 97.92L 197.92 101.17L 188.16 153.2C 184.35 169.47 183.54 169 180.03 177.59C 176.8 185.48 178.21 183.13 173.53 188.98C 168.85 194.83 168.72 196.52 160.52 201.98C 152.32 207.44 148.74 209.01 139.38 211.74C 130.02 214.47 129.69 213.76 121.5 213.37C 113.31 212.98 109.92 211.67 105.24 210.11L 101.98 206.86L 121.5 179.22L 149.14 149.95L 145.89 146.7L 116.62 177.59L 97.11 203.61L 90.6 192.23L 87.35 180.85L 85.72 193.85C 87.28 200.48 91.9 204.2 93.85 208.49C 94.72 210.41 94.79 209.85 93.85 211.74L 85.72 224.75L 87.35 226.37L 90.6 226.37L 98.73 213.37L 105.24 213.37C 110.7 214.54 113.31 217.46 121.5 218.24C 129.69 219.02 130.8 218.57 139.38 216.62C 147.96 214.67 149.07 214.79 157.27 210.11C 165.47 205.43 167.29 203.74 173.53 197.11C 179.77 190.48 178.99 191.45 183.28 182.47C 187.57 173.49 187.51 173.76 191.41 159.71C 195.31 145.66 197.2 138.76 199.54 123.93C 201.88 109.1 200.39 104.55 201.17 97.92L 202.8 96.29L 201.17 93.04ZM 128 32.88L 134.5 41.01C 137.04 43.18 136.04 42.42 139.38 42.63C 145.62 43.02 153.89 44.19 160.52 42.63L 167.02 36.13L 162.15 34.5L 158.89 37.76C 153.43 38.54 145.62 39.32 139.38 37.76L 132.88 31.25L 128 32.88ZM 51.58 28L 53.2 32.88C 56.71 36.39 57.62 40.29 66.21 42.63L 88.98 42.63L 93.85 36.13L 88.98 34.5L 85.72 37.76C 80.26 38.54 73.23 40.1 66.21 37.76C 59.19 35.42 59.97 30.34 56.46 28L 51.58 28Z"/></g>
</svg>
